<svg xmlns="http://www.w3.org/2000/svg" viewBox="0 0 1360.1 921.13"><defs><style>.cls-1{fill:#4c4a4a;}</style></defs><g id="Layer_2" data-name="Layer 2"><g id="t-top"><path d="M728.69.39c-29.54,0-42.54,13-42.54,42.54v143c0,29.54,13,42.54,42.54,42.54H902.38v39.48L1293.38.39Z"/></g><g id="t-mid"><path class="cls-1" d="M1317.56,35.39h-59.18l-391,267.53V843.59c0,10.81,1.75,19.39,5.4,25.94l271.09-315.42V263.44h173.69c29.54,0,42.54-13,42.54-42.54v-143C1360.1,48.39,1347.1,35.39,1317.56,35.39Z"/></g><g id="t-bottom"><path d="M891.12,921.13h191.41c29.54,0,42.54-13,42.54-42.54V589.11L854,904.53C860.31,915.89,872.38,921.13,891.12,921.13Z"/></g><g id="s-top"><path class="cls-1" d="M265.12,225.68H540.43c29.54,0,42.54-13,42.54-42.54V42.54C583,13,570,0,540.43,0H209.59c-91.65,0-161,26.08-202,75.73L244.17,232.92C249.45,228.28,256.53,225.68,265.12,225.68Z"/></g><g id="s-mid"><path d="M660.5,553.71c0-132.33-73.25-179.6-184.32-196.14L300.12,333.94c-20.09-2.36-31.9-16.54-31.9-37.81,0-12.17,3.87-22,10.95-28.21L42.56,110.73C14.81,144.29,0,188.62,0,243V367c0,132.34,72.08,179.6,183.14,196.15L360.38,588c20.09,2.36,30.72,13,30.72,40.17,0,8.44-2.12,16.17-6.25,22.14L608,820.57C642.06,786,660.5,738,660.5,677.78Z"/></g><g id="s-bottom"><path class="cls-1" d="M392.38,697.42H74.54C45,697.42,32,710.42,32,740V878.2c0,29.54,13,42.54,42.54,42.54H447.92c84.25,0,150.08-22.4,192.12-65.17L416.85,685.29C411.72,692.7,403.51,697.42,392.38,697.42Z"/></g></g></svg>